<svg width="124" height="32" viewBox="0 0 124 32" fill="none" xmlns="http://www.w3.org/2000/svg">
<g id="Logo">
<g id="Symbol">
<g id="Group">
<path id="Vector" d="M9.97217 20.6398L10.0065 20.6627C9.99122 20.636 10.0027 20.5598 9.97217 20.6398Z" fill="url(#paint0_linear_17_857)"/>
<path id="Vector_2" d="M21.0558 18.3106C21.0558 18.3106 21.0177 18.2915 21.0024 18.2839C21.0329 18.3144 21.0215 18.3106 21.0558 18.3106Z" fill="url(#paint1_linear_17_857)"/>
<path id="Vector_3" d="M20.9617 18.2425C20.9617 18.2425 20.9839 18.2833 21.0025 18.2833C20.9839 18.2648 20.9617 18.2425 20.9617 18.2425Z" fill="url(#paint2_linear_17_857)"/>
<path id="Vector_4" d="M15.5401 0.00191871C-5.18005 -0.283618 -5.18005 32.2375 15.5401 31.9482C36.2566 32.2337 36.2566 -0.287375 15.5401 0.00191871ZM17.058 30.3514C16.6184 28.8486 16.7837 27.4059 16.0962 26.1172C17.7455 24.5055 19.5414 25.4936 19.3799 23.6864C20.7286 22.6495 23.584 25.6025 23.9672 23.4009C23.7456 22.3376 22.2315 22.4691 21.5139 22.0559C20.1463 20.3239 22.9866 19.2306 23.9071 18.1109C25.4362 17.4272 27.0142 21.0339 28.0662 18.9901C28.0061 18.4566 27.1758 17.6526 26.8526 17.3257C26.9015 14.9325 27.0893 14.8498 24.5834 15.6275C23.6742 15.5599 23.4074 14.7596 23.4375 14.0007C23.4563 13.5311 23.1332 13.0915 22.6748 13.0051C21.3899 12.7647 21.9948 16.007 21.9948 16.9913C22.0586 17.8705 20.9879 18.1823 20.5333 18.4566C19.5715 19.5349 18.0423 17.4798 16.8889 17.4572C16.7311 16.6344 16.1638 15.59 15.4425 15.188C15.4913 14.5154 16.1788 14.0458 16.7311 13.8955C17.5727 13.1591 19.7706 10.9011 17.1669 11.2543C16.3404 11.9606 14.9127 13.2343 13.9847 12.6407C12.5007 11.5511 12.0649 10.8147 12.5721 8.81598C12.8426 6.06581 9.70167 7.37327 10.8325 9.45844C9.37105 10.7471 9.17568 9.16539 7.92082 9.53358C7.70291 9.81536 7.71418 10.3676 7.73673 10.687C8.00348 12.2236 5.83941 11.9945 6.72608 13.7528C7.72546 14.305 8.24017 13.1704 9.078 12.8248C10.2352 11.3295 11.4938 13.4109 12.5796 13.501C14.9014 18.2049 11.4562 15.2556 10.686 17.5399C11.5088 19.734 13.7894 17.1191 15.1381 17.7465C15.5815 18.7271 17.0054 19.2306 17.9334 19.5987C19.7743 20.786 18.6998 23.198 16.7612 23.4009C14.6723 23.4723 13.7931 25.4222 11.9935 23.5399C11.9334 22.0408 16.9378 20.2713 14.244 19.3883C13.8194 19.5311 13.3423 19.8843 12.8501 20.136C12.3579 20.3877 11.8808 20.7259 11.4412 21.0865C11.3698 21.1467 11.2909 21.1955 11.2045 21.2368C10.7574 21.4472 10.2464 21.1993 10.0398 20.7484C9.99848 20.6545 9.93461 20.6282 9.83317 20.7747L9.93836 20.6883C7.67661 19.5762 9.00661 18.1898 8.55577 16.255C7.28964 14.8085 6.25269 16.9913 6.86509 18.1222C6.01599 19.362 4.26896 17.4422 3.64529 18.7421C3.96464 19.3095 4.17503 19.9669 4.14873 20.6733C1.42111 21.9356 4.29526 24.0283 5.53885 21.6426C6.24517 21.3082 6.86133 20.7935 7.44368 21.1992C7.68788 21.3683 7.93585 21.5299 8.2026 21.6614C8.72483 21.9168 8.92396 22.6044 9.44619 22.9388C11.2571 24.7384 7.61274 24.9488 7.22201 26.2863C7.75175 27.838 10.4756 26.5343 11.1557 25.6777C12.1287 26.7221 13.7593 26.0759 14.7549 26.8424C16.13 37.1066 -1.23138 22.7659 1.08297 15.9657C7.43992 -19.9368 52.0437 20.3351 17.0542 30.3439L17.058 30.3514Z" fill="url(#paint3_linear_17_857)"/>
</g>
<path id="Vector_5" d="M20.4227 5.46871C20.8811 3.48123 18.5442 4.7436 17.9468 5.42363C15.1704 2.09487 10.2035 7.65532 15.8504 8.06108C17.9769 7.2458 17.9205 7.24956 20.047 8.06108C20.6857 8.32032 20.3401 7.26835 20.4265 6.99408C18.4503 7.17442 18.454 5.28462 20.4265 5.46871H20.4227ZM15.8466 6.99408C14.9637 6.99408 14.28 6.58456 14.28 6.2314C14.7007 4.49188 19.2167 6.26897 15.8466 6.99408Z" fill="url(#paint4_linear_17_857)"/>
<path id="Vector_6" d="M23.6022 9.56738C22.167 10.2399 21.919 9.75523 20.4274 9.56738C20.5101 9.85667 20.1832 10.7659 20.8069 10.5329C22.7718 11.2242 19.8413 10.9086 20.4274 12.2612C21.9227 12.0696 22.1707 11.5887 23.6022 12.2612C26.0555 12.3138 26.0555 9.51478 23.6022 9.56738ZM23.6022 11.2956C22.7906 11.2543 22.7906 10.5705 23.6022 10.5292C24.8044 10.6043 24.8044 11.2205 23.6022 11.2956Z" fill="url(#paint5_linear_17_857)"/>
</g>
<g id="Logotype">
<path id="Vector_7" d="M112.463 13.1916H101.604L101.615 14.5182C101.643 17.4728 104.043 19.8518 106.998 19.8518H111.877L111.553 21.9512L105.425 21.9403C102.125 21.9348 99.3183 19.5393 98.7976 16.2778L97.2189 6.42732H101.538L101.577 9.55732H112.984L112.458 13.1916H112.463Z" fill="#00A0E9"/>
<path id="Vector_8" d="M110.892 5.20987C111.769 5.62099 111.917 5.32498 112.827 5.20987C112.778 5.38528 112.975 5.93892 112.597 5.7964C111.396 6.21848 113.183 6.02663 112.827 6.84887C111.917 6.73376 111.763 6.43775 110.892 6.84887C109.395 6.88176 109.395 5.17698 110.892 5.20439V5.20987ZM110.892 6.26234C111.385 6.23493 111.385 5.82381 110.892 5.7964C110.157 5.84025 110.157 6.21848 110.892 6.26234Z" fill="#00A0E9"/>
<path id="Vector_9" d="M110.892 7.40816C111.769 7.81928 111.917 7.52328 112.827 7.40816C112.778 7.58358 112.975 8.13722 112.597 7.9947C111.396 8.41678 113.183 8.22492 112.827 9.04716C111.917 8.93205 111.763 8.63604 110.892 9.04716C109.395 9.08005 109.395 7.37527 110.892 7.40268V7.40816ZM110.892 8.46063C111.385 8.43322 111.385 8.0221 110.892 7.9947C110.157 8.03855 110.157 8.41678 110.892 8.46063Z" fill="#00A0E9"/>
<path id="Vector_10" d="M36.5227 28.8904C36.0293 28.5944 35.7443 28.1778 35.7443 27.4487C35.7443 26.7197 36.0512 26.2921 36.5227 26.0071C37.0434 25.6946 37.9533 25.4699 39.2032 25.4699C40.453 25.4699 41.3629 25.6946 41.8837 26.0071C42.3551 26.2921 42.662 26.7361 42.662 27.4487C42.662 28.1613 42.377 28.5944 41.8837 28.8904C41.3629 29.2028 40.4694 29.4276 39.2032 29.4276C37.9369 29.4276 37.0434 29.2028 36.5227 28.8904ZM41.4725 28.5505C41.8617 28.3203 42.0865 27.9859 42.0865 27.4487C42.0865 26.9115 41.8782 26.5881 41.4835 26.3524C41.0669 26.1057 40.2611 25.9413 39.2032 25.9413C38.1452 25.9413 37.3394 26.1112 36.9228 26.3524C36.5281 26.5881 36.3198 26.9334 36.3198 27.4487C36.3198 27.964 36.5446 28.3203 36.9338 28.5505C37.3613 28.7972 38.1726 28.9562 39.2032 28.9562C40.2337 28.9562 41.0505 28.7917 41.4725 28.5505Z" fill="#00A0E9"/>
<path id="Vector_11" d="M50.0439 25.6343L45.6641 27.3775V27.3939L50.2084 29.2577V29.3454H49.2107L44.9899 27.6132H44.217V29.3454H43.6578V25.5411H44.217V27.1747H44.9844L49.0791 25.5411H50.0384V25.6288L50.0439 25.6343Z" fill="#00A0E9"/>
<path id="Vector_12" d="M52.029 29.3513H51.4698V25.5471H52.029V29.3513Z" fill="#00A0E9"/>
<path id="Vector_13" d="M54.0919 26.1934H54.0755V29.3454H53.5164V25.5411H53.9768C55.7364 26.6046 57.5015 27.6461 59.2666 28.6931H59.283V25.5411H59.8421V29.3454H59.3817C57.6166 28.2929 55.857 27.2514 54.0919 26.1934Z" fill="#00A0E9"/>
<path id="Vector_14" d="M66.4312 28.5015H62.0734L61.295 29.3511H60.6262V29.3127L64.0687 25.5524H64.4359L67.8784 29.3127V29.3511H67.2096L66.4258 28.5015H66.4312ZM62.479 28.0629H66.0366L64.9512 26.8844C64.6059 26.5116 64.3099 26.1608 64.266 26.106H64.255C64.255 26.106 63.9097 26.5062 63.5698 26.8844L62.4845 28.0629H62.479Z" fill="#00A0E9"/>
<path id="Vector_15" d="M73.7277 26.9938L71.7104 29.3618H71.6282L68.3392 25.585V25.5411H69.0464L71.6885 28.5779H71.6995L73.6948 26.2373H73.766L75.7668 28.5779H75.7778L78.4199 25.5411H79.1216V25.585L75.8326 29.3618H75.7504L73.7331 26.9938H73.7222H73.7277Z" fill="#00A0E9"/>
<path id="Vector_16" d="M85.3794 28.5015H81.0215L80.2431 29.3511H79.5743V29.3127L83.0168 25.5524H83.3841L86.8265 29.3127V29.3511H86.1578L85.3739 28.5015H85.3794ZM81.4271 28.0629H84.9847L83.8993 26.8844C83.554 26.5116 83.258 26.1608 83.2141 26.106H83.2032C83.2032 26.106 82.8578 26.5062 82.518 26.8844L81.4326 28.0629H81.4271Z" fill="#00A0E9"/>
<path id="Vector_17" d="M90.4354 26.1934H90.419V29.3454H89.8599V25.5411H90.3203C92.0799 26.6046 93.845 27.6461 95.6101 28.6931H95.6265V25.5411H96.1856V29.3454H95.7252C93.9601 28.2929 92.2005 27.2514 90.4354 26.1934Z" fill="#00A0E9"/>
<path id="Vector_18" d="M102.772 28.5015H98.4143L97.6359 29.3511H96.9672V29.3127L100.41 25.5524H100.777L104.219 29.3127V29.3511H103.551L102.767 28.5015H102.772ZM98.8199 28.0629H102.378L101.292 26.8844C100.947 26.5116 100.651 26.1608 100.607 26.106H100.596C100.596 26.106 100.251 26.5062 99.9108 26.8844L98.8254 28.0629H98.8199Z" fill="#00A0E9"/>
<path id="Vector_19" d="M105.392 25.5471L108.193 28.5839H108.204L111.005 25.5471H111.723V25.58L108.226 29.3678H108.171L104.674 25.58V25.5471H105.392Z" fill="#00A0E9"/>
<path id="Vector_20" d="M113.435 29.3513H112.876V25.5471H113.435V29.3513Z" fill="#00A0E9"/>
<path id="Vector_21" d="M35.7436 6.36673V4.65099L40.1618 6.4051V8.20307L35.7436 6.36673ZM35.7436 11.355V9.66118L40.1618 11.4591V13.1749L35.7436 11.3605V11.355ZM35.7436 22.8225V20.8217C37.421 19.9118 38.6324 17.6534 38.8901 14.9454H40.5236C40.2002 18.4756 38.605 21.6056 35.7382 22.817L35.7436 22.8225ZM48.3185 18.8648V22.8225H46.6027V18.8648H41.5761V6.59148H46.6027V4.65099H48.3185V6.59148H53.3835V18.8648H48.3185ZM46.6849 8.34559H43.2315V17.1052H46.6849V8.34559ZM51.6896 8.34559H48.2582V17.1052H51.6896V8.34559Z" fill="#00A0E9"/>
<path id="Vector_22" d="M57.1154 22.5978H55.9039C56.2273 21.6714 56.5069 19.4897 56.5069 16.8421H57.6964C57.6964 19.5281 57.3511 21.7701 57.1099 22.5978H57.1154ZM61.8789 15.817L61.698 14.7043C61.3526 14.8852 60.8319 15.0496 60.1851 15.1263V22.817H58.7544V15.1483H55.9259V13.575L58.568 10.1216H55.9259V8.38396L58.6941 4.65099H60.4482L57.4223 8.60871H59.7411L60.8703 7.11223H62.5641L57.658 13.6134H59.4944C60.344 13.6134 60.9251 13.4928 61.4349 13.2297L61.0292 11.07H62.2626L63.1122 15.8115H61.8789V15.817ZM61.8405 22.5978L61.254 16.8421H62.4654L63.0081 22.5978H61.835H61.8405ZM72.6612 22.5978H69.8766C68.7254 22.5978 67.9799 21.8687 67.9799 20.4764V19.8131H63.5617V12.9501H67.9799V11.5359H63.8797V5.01826H73.5712V11.5359H69.4709V12.9501H73.911V19.7528H69.4709V20.438C69.4709 21.0246 69.7724 21.3041 70.178 21.3041H72.579C73.1655 21.3041 73.7301 21.0794 74.1138 20.7614V22.1757C73.7082 22.4169 73.2258 22.5978 72.6612 22.5978ZM67.9799 14.1616H65.1733V15.7567H67.9799V14.1616ZM67.9799 16.9079H65.1733V18.5249H67.9799V16.9079ZM67.9799 6.22969H65.4364V7.68232H67.9799V6.22969ZM67.9799 8.87183H65.4364V10.3245H67.9799V8.87183ZM72.0199 6.22969H69.4764V7.68232H72.0199V6.22969ZM72.0199 8.87183H69.4764V10.3245H72.0199V8.87183ZM72.2611 14.1616H69.4764V15.7567H72.2611V14.1616ZM72.2611 16.9079H69.4764V18.5249H72.2611V16.9079Z" fill="#00A0E9"/>
<path id="Vector_23" d="M92.8965 14.0361H86.6365C86.5488 14.8419 86.1542 17.5444 83.8738 19.8467C81.4564 22.286 78.5567 22.6313 77.7783 22.6971V20.6086C78.4361 20.4167 80.4643 19.737 81.9169 17.6979C82.9584 16.2343 83.2105 14.7597 83.2818 14.0361H77.4055L76.9999 10.7636H83.3202L83.3805 6.00011H88.144L87.234 10.7636H93.3515L92.8856 14.0361H92.8965Z" fill="#00A0E9"/>
<path id="Vector_24" d="M118.873 4.65099C121.505 4.65099 123.533 6.65726 123.533 9.21169C123.533 11.7661 121.505 13.8217 118.873 13.8217C116.242 13.8217 114.214 11.7935 114.214 9.21169C114.214 6.62985 116.319 4.65099 118.873 4.65099ZM118.873 12.9227C120.929 12.9227 122.431 11.2947 122.431 9.23909C122.431 7.18349 120.902 5.52805 118.846 5.52805C116.79 5.52805 115.289 7.18349 115.289 9.23909C115.289 11.4427 116.993 12.9227 118.873 12.9227ZM117.119 11.6181V6.98067C117.547 6.90393 118.095 6.83267 118.824 6.83267C119.652 6.83267 120.852 6.98067 120.852 8.18663C120.852 8.74027 120.425 9.11302 119.899 9.2665V9.34324C120.348 9.49125 120.573 9.86948 120.699 10.4725C120.847 11.1741 120.951 11.4482 121.05 11.6236H119.997C119.871 11.4482 119.772 11.048 119.646 10.4725C119.471 9.7434 119.071 9.7434 118.117 9.7434V11.6236H117.114L117.119 11.6181ZM118.144 9.01435C118.923 9.01435 119.772 9.01435 119.772 8.3127C119.772 7.88514 119.471 7.58365 118.747 7.58365C118.446 7.58365 118.249 7.61106 118.144 7.63298V9.01435Z" fill="#00A0E9"/>
</g>
</g>
<defs>
<linearGradient id="paint0_linear_17_857" x1="9.97217" y1="20.6322" x2="10.0065" y2="20.6322" gradientUnits="userSpaceOnUse">
<stop stop-color="#7ECBF1"/>
<stop offset="0.2" stop-color="#8F82BA"/>
<stop offset="0.4" stop-color="#ED9EBD"/>
<stop offset="0.6" stop-color="#EF9B76"/>
<stop offset="0.8" stop-color="#FEF59A"/>
<stop offset="1" stop-color="#89C797"/>
</linearGradient>
<linearGradient id="paint1_linear_17_857" x1="21.0024" y1="18.2991" x2="21.0596" y2="18.2991" gradientUnits="userSpaceOnUse">
<stop stop-color="#7ECBF1"/>
<stop offset="0.2" stop-color="#8F82BA"/>
<stop offset="0.4" stop-color="#ED9EBD"/>
<stop offset="0.6" stop-color="#EF9B76"/>
<stop offset="0.8" stop-color="#FEF59A"/>
<stop offset="1" stop-color="#89C797"/>
</linearGradient>
<linearGradient id="paint2_linear_17_857" x1="20.9617" y1="18.2648" x2="21.0025" y2="18.2648" gradientUnits="userSpaceOnUse">
<stop stop-color="#7ECBF1"/>
<stop offset="0.2" stop-color="#8F82BA"/>
<stop offset="0.4" stop-color="#ED9EBD"/>
<stop offset="0.6" stop-color="#EF9B76"/>
<stop offset="0.8" stop-color="#FEF59A"/>
<stop offset="1" stop-color="#89C797"/>
</linearGradient>
<linearGradient id="paint3_linear_17_857" x1="0.000939265" y1="15.9769" x2="31.0793" y2="15.9769" gradientUnits="userSpaceOnUse">
<stop stop-color="#7ECBF1"/>
<stop offset="0.2" stop-color="#8F82BA"/>
<stop offset="0.4" stop-color="#ED9EBD"/>
<stop offset="0.6" stop-color="#EF9B76"/>
<stop offset="0.8" stop-color="#FEF59A"/>
<stop offset="1" stop-color="#89C797"/>
</linearGradient>
<linearGradient id="paint4_linear_17_857" x1="13.2655" y1="6.23515" x2="20.4829" y2="6.23515" gradientUnits="userSpaceOnUse">
<stop stop-color="#7ECBF1"/>
<stop offset="0.2" stop-color="#8F82BA"/>
<stop offset="0.4" stop-color="#ED9EBD"/>
<stop offset="0.6" stop-color="#EF9B76"/>
<stop offset="0.8" stop-color="#FEF59A"/>
<stop offset="1" stop-color="#89C797"/>
</linearGradient>
<linearGradient id="paint5_linear_17_857" x1="20.3448" y1="10.9124" x2="25.4394" y2="10.9124" gradientUnits="userSpaceOnUse">
<stop stop-color="#7ECBF1"/>
<stop offset="0.2" stop-color="#8F82BA"/>
<stop offset="0.4" stop-color="#ED9EBD"/>
<stop offset="0.6" stop-color="#EF9B76"/>
<stop offset="0.8" stop-color="#FEF59A"/>
<stop offset="1" stop-color="#89C797"/>
</linearGradient>
</defs>
</svg>
